<svg width="1000" height="1000" viewBox="0 0 1000 1000" fill="none" xmlns="http://www.w3.org/2000/svg">
<rect width="1000" height="1000" fill="#6EECC7"/>
<g clip-path="url(#clip0_994_1675)">
<path d="M703.776 489.817C703.753 481.517 702.921 473.621 701.305 466.34C696.292 443.735 684.674 424.297 667.691 410.127C650.756 395.982 630.084 388.43 607.913 388.283C604.716 388.259 601.53 388.259 598.216 388.271H595.159V359.919C595.171 338.848 595.171 317.778 595.159 296.695C595.159 288.308 592.992 286.012 585.134 286H306.061C298.073 286 296 288.173 296 296.572V655.042C296 663.392 298.073 665.565 306.096 665.59H323.5C328.489 693.794 347.392 712.348 373.147 714.165C374.482 714.251 375.805 714.3 377.117 714.3C401.607 714.3 419.339 697.662 428.591 665.921H568.538C577.685 698.018 595.194 714.275 620.633 714.275C621.136 714.275 621.64 714.263 622.155 714.251C642.206 713.747 667.562 700.67 673.805 665.59H693.75C701.797 665.565 703.881 663.404 703.881 655.079C703.893 642.689 703.893 630.3 703.893 617.911C703.916 575.929 703.94 532.523 703.776 489.817ZM376.087 699.909H375.946C365.557 699.909 355.778 695.673 348.411 687.962C340.939 680.152 336.828 669.74 336.84 658.627C336.84 647.527 340.974 637.103 348.47 629.293C355.848 621.594 365.593 617.37 375.934 617.37H376.133C386.592 617.432 396.43 621.803 403.856 629.674C411.281 637.557 415.333 647.945 415.275 658.934C415.158 681.442 397.578 699.835 376.087 699.909ZM648.847 687.814C641.433 695.611 631.595 699.909 621.136 699.909H621.125C610.677 699.897 600.804 695.562 593.32 687.679C585.848 679.809 581.761 669.457 581.807 658.529C581.901 636.034 599.434 617.579 620.89 617.37H621.242C631.478 617.37 641.164 621.557 648.531 629.195C656.085 637.004 660.266 647.429 660.313 658.529C660.36 669.58 656.284 679.98 648.847 687.814ZM690.424 602.059C690.377 618.23 690.331 634.413 690.331 650.597C690.331 650.72 690.307 650.904 690.26 651.174C689.335 651.174 688.398 651.174 687.449 651.186C683.139 651.211 678.689 651.236 674.309 651.015C673.969 650.634 673.395 649.602 673.254 648.878C668.476 624.639 651.365 607.363 628.597 603.778C600.91 599.419 574.312 619.36 569.311 648.24C568.866 650.879 568.444 651.285 566.125 651.285H566.078C542.139 651.236 518.223 651.211 495.701 651.211C472.09 651.211 449.989 651.236 430.981 651.26H430.91C428.744 651.26 428.322 651.088 427.9 649.136C421.81 620.661 401.033 602.623 375.068 603.078C349.36 603.569 328.688 622.81 323.617 650.978H309.902V300.636H581.421V328.374C581.421 349.445 581.421 370.516 581.433 391.586C581.433 400.709 583.599 402.109 591.622 402.539C594.878 402.711 598.216 402.797 601.437 402.87C610.314 403.091 619.485 403.325 627.988 405.424C664.072 414.302 689.628 447.615 690.131 486.416C690.623 524.947 690.518 564.141 690.424 602.059Z" fill="white"/>
<path d="M505.293 492.899C497.774 483.862 488.826 473.155 479.398 462.312C470.38 451.949 458.457 446.203 445.831 446.141H445.632C433.147 446.141 421.33 451.728 412.335 461.883C403.387 471.976 394.627 482.56 386.159 492.776L385.444 493.636C379.378 500.954 376.672 509.598 376.695 521.656V521.718C377.176 536.342 385.655 548.473 399.967 554.993C404.98 557.265 409.876 558.407 414.642 558.407C423.239 558.407 431.426 554.699 439.097 547.295C443.957 542.604 447.377 542.58 452.156 547.245C467.334 562.054 488.357 561.87 503.267 546.828C517.79 532.179 518.656 508.997 505.293 492.899ZM461.748 537.029C456.372 531.835 450.973 529.232 445.597 529.232C440.28 529.232 434.974 531.774 429.739 536.858C420.053 546.239 407.592 546.312 397.976 537.042C388.665 528.066 387.506 513.368 395.329 503.582C405.284 491.143 415.79 479.134 423.836 470.048C429.235 463.958 436.544 460.741 445.55 460.483C454.721 460.704 462.169 463.982 467.674 470.232C476.774 480.559 486.484 491.72 495.865 503.385C503.747 513.196 502.716 527.906 493.499 536.882C483.86 546.275 471.399 546.337 461.748 537.029Z" fill="white"/>
<path d="M670.807 508.715C670.818 503.03 670.842 497.148 670.514 491.365C668.757 460.766 649.175 434.943 621.757 427.134C614.062 424.936 605.864 424.567 597.923 424.199C595.405 424.076 592.805 423.966 590.275 423.782C588.015 423.622 585.169 423.683 583.283 425.513C581.374 427.379 581.116 430.437 581.105 433.187C581.069 442.949 581.081 452.711 581.081 462.485L581.093 474.604L581.081 486.723C581.081 496.841 581.069 506.947 581.105 517.052C581.14 523.597 583.435 526.04 589.608 526.052C600.886 526.077 612.165 526.077 623.443 526.077C636.467 526.065 649.491 526.065 662.515 526.102H662.561C665.337 526.102 667.363 525.377 668.781 523.879C670.198 522.381 670.865 520.232 670.83 517.322C670.795 514.449 670.807 511.588 670.807 508.715ZM656.928 511.465H594.948V438.258C610.513 435.533 625.434 440.186 637.111 451.458C651.611 465.444 658.966 487.779 656.928 511.465Z" fill="white"/>
<path d="M442.435 400.058C441.802 386.122 437.797 376.176 429.844 368.772C424.797 364.057 418.589 361.822 412.347 362.46C406.057 363.099 400.307 366.611 396.149 372.345C384.648 388.209 387.482 415.321 401.97 428.14C406.526 432.168 411.796 434.145 416.985 434.145C423.297 434.145 429.516 431.21 434.236 425.439C439.401 419.115 442.013 411.109 442.435 400.23L442.446 400.144L442.435 400.058ZM424.082 415.861C422.22 418.243 419.971 419.619 417.605 419.827C415.251 420.024 412.85 419.066 410.66 417.04C410.285 416.696 408.927 415.604 407.275 413.111C407.275 413.111 402.192 405.412 402.614 394.57C402.649 393.575 402.86 392.667 402.86 392.667C402.989 392.114 403.129 391.721 403.176 391.574C404.429 387.669 405.601 383.985 407.51 380.781C408.903 378.423 410.789 376.986 412.932 376.618C415.38 376.201 418.109 377.158 420.615 379.319C429.727 387.166 431.531 406.284 424.082 415.861Z" fill="white"/>
<path d="M503.208 394.816C502.939 392.065 502.283 390.027 501.955 389.008C499.531 381.616 498.313 377.932 497.2 375.906C496.521 374.678 490.431 363.836 479.644 362.461C472.101 361.503 464.477 364.843 458.703 371.596C447.834 384.329 445.784 406.579 454.147 421.191C458.375 428.607 464.969 433.298 472.195 434.059C472.886 434.133 473.577 434.169 474.28 434.169C474.854 434.169 484.528 432.757 492.152 425.292C492.152 425.292 504.005 413.541 503.314 396.301C503.279 395.552 503.208 394.816 503.208 394.816ZM489.095 394.361C489.341 396.338 489.341 397.284 489.084 398.806C488.076 404.933 486.273 411.073 481.682 416.033C479.117 418.796 476.306 420.098 473.554 419.828C470.778 419.533 468.236 417.667 466.222 414.4C460.401 405.007 461.9 388.602 469.314 380.633C471.773 377.993 474.502 376.581 477.091 376.581C477.419 376.581 477.746 376.594 478.074 376.643C480.78 377.023 483.86 379.209 485.605 382.512C487.139 385.434 488.041 388.246 488.592 391.783C488.803 393.011 489.095 394.361 489.095 394.361Z" fill="white"/>
<path d="M377.41 412.694C369.2 405.965 360.416 404.737 352.03 409.133C344.207 413.222 339.838 420.81 339.405 431.075V431.149C339.369 448.622 349.126 465.382 362.594 471.006C365.768 472.344 368.966 473.008 372.069 473.008C375.7 473.008 379.202 472.087 382.352 470.269C387.998 467.015 391.816 461.22 393.116 453.951C396.02 437.743 390.586 423.475 377.41 412.694ZM380.209 446.51C380.139 451.863 379.237 455.866 375.091 457.966C371.425 459.82 367.712 458.911 363.414 455.093C355.087 447.725 351.819 438.786 353.705 428.521C354.279 425.39 355.684 423.118 357.757 421.94C358.811 421.338 360.029 421.043 361.365 421.043C362.77 421.043 364.293 421.375 365.862 422.05C373.873 425.464 380.174 436.208 380.209 446.51Z" fill="white"/>
<path d="M551.567 430.007C550.408 419.754 545.465 411.883 537.993 408.445C530.591 405.031 521.807 406.505 513.901 412.472C503.934 419.999 497.997 431.026 497.165 443.526V443.649C497.095 455.326 501.147 464.805 508.268 469.668C511.582 471.927 515.307 473.057 519.242 473.057C522.639 473.057 526.187 472.222 529.736 470.527C543.334 464.093 553.324 445.54 551.567 430.007ZM515.916 457.953C512.461 456.136 510.845 452.796 510.833 447.467C510.798 438.049 514.264 430.375 521.116 424.629C524.067 422.148 526.667 420.945 529.139 420.945C530.404 420.945 531.633 421.252 532.863 421.878C537.009 423.978 537.852 428.153 537.899 434.648C537.583 440.812 535.346 449.493 526.55 455.989C522.428 459.046 519.148 459.648 515.916 457.953Z" fill="white"/>
</g>
<defs>
<clipPath id="clip0_994_1675">
<rect width="407.905" height="428.3" fill="white" transform="translate(296 286)"/>
</clipPath>
</defs>
</svg>
